<?xml version="1.0" encoding="utf-8"?>
<!-- Generator: Adobe Illustrator 16.0.0, SVG Export Plug-In . SVG Version: 6.00 Build 0)  -->
<!DOCTYPE svg PUBLIC "-//W3C//DTD SVG 1.1//EN" "http://www.w3.org/Graphics/SVG/1.1/DTD/svg11.dtd">
<svg version="1.1" xmlns="http://www.w3.org/2000/svg" xmlns:xlink="http://www.w3.org/1999/xlink" x="0px" y="0px" width="30px"
	 height="30px" viewBox="0 0 30 30" enable-background="new 0 0 30 30" xml:space="preserve">
<g id="Layer_1">
</g>
<g id="Texto">
	<g>
		<g>
			<g id="_x33_5_1_">
				<g>
					<path fill="#CCCCCC" d="M15,21.513c-5.798,0-11.959,1.488-11.959,4.245C3.042,28.512,9.203,30,15,30
						c5.798,0,11.957-1.488,11.957-4.242C26.957,23.001,20.799,21.513,15,21.513z M15,22.678c0.63,0,1.227,0.021,1.807,0.049
						c-0.009,0.046-0.026,0.087-0.026,0.134c0,1.198-0.975,2.174-2.176,2.174s-2.177-0.976-2.177-2.174
						c0-0.03-0.015-0.059-0.018-0.085C13.222,22.714,14.086,22.678,15,22.678z M15,28.837c-6.686,0-10.79-1.794-10.79-3.079
						c0-1.031,2.643-2.388,7.134-2.886c0.006,1.79,1.468,3.243,3.261,3.243c1.798,0,3.26-1.459,3.26-3.255
						c0-0.022-0.012-0.041-0.012-0.063c4.976,0.418,7.938,1.871,7.938,2.961C25.794,27.043,21.687,28.837,15,28.837z M28.964,23.997
						l-3.554-4.412c-1.087-1.348-1.544-3.099-1.254-4.805l0.105-0.615c0.416-2.452-0.267-4.948-1.875-6.849
						c-1.219-1.441-2.865-2.415-4.677-2.802V2.683C17.71,1.203,16.503,0,14.98,0c-1.482,0-2.689,1.203-2.689,2.683v1.832
						c-1.811,0.387-3.457,1.36-4.679,2.802c-1.605,1.9-2.288,4.396-1.872,6.849l0.103,0.615c0.29,1.706-0.164,3.457-1.251,4.805
						l-3.554,4.412c-0.19,0.231-0.152,0.573,0.082,0.759c0.234,0.188,0.574,0.152,0.762-0.082l3.557-4.412
						c1.277-1.588,1.813-3.652,1.474-5.663l-0.103-0.615c-0.363-2.137,0.231-4.315,1.635-5.97c1.397-1.658,3.448-2.606,5.619-2.606
						h1.875c2.17,0,4.219,0.949,5.623,2.606c1.4,1.654,1.995,3.833,1.632,5.97l-0.103,0.615c-0.343,2.01,0.193,4.075,1.477,5.663
						l3.554,4.412c0.108,0.133,0.264,0.202,0.422,0.202c0.117,0,0.24-0.041,0.34-0.12C29.113,24.57,29.151,24.229,28.964,23.997z
						 M16.626,4.326h-3.251V2.683c0-0.882,0.721-1.601,1.646-1.601c0.885,0,1.605,0.718,1.605,1.601V4.326z"/>
				</g>
			</g>
		</g>
	</g>
</g>
</svg>
