<?xml version="1.0" encoding="utf-8"?>
<!-- Generator: Adobe Illustrator 16.0.0, SVG Export Plug-In . SVG Version: 6.00 Build 0)  -->
<!DOCTYPE svg PUBLIC "-//W3C//DTD SVG 1.1//EN" "http://www.w3.org/Graphics/SVG/1.1/DTD/svg11.dtd">
<svg version="1.1" xmlns="http://www.w3.org/2000/svg" xmlns:xlink="http://www.w3.org/1999/xlink" x="0px" y="0px" width="30px"
	 height="30px" viewBox="0 0 30 30" enable-background="new 0 0 30 30" xml:space="preserve">
<g id="Layer_1">
</g>
<g id="Texto">
	<g>
		<g>
			<path fill="#CCCCCC" d="M25.445,29.133h-7.373c-0.34,0-0.613-0.275-0.613-0.615V20.53h-4.917v7.987
				c0,0.34-0.276,0.615-0.616,0.615H4.552c-0.339,0-0.613-0.275-0.613-0.615V16.229c0-0.339,0.274-0.614,0.613-0.614
				c0.34,0,0.618,0.275,0.618,0.614v11.676h6.144v-7.989c0-0.339,0.273-0.614,0.613-0.614h6.146c0.341,0,0.614,0.275,0.614,0.614
				v7.989h6.146V16.842c0-0.34,0.274-0.613,0.613-0.613c0.341,0,0.613,0.273,0.613,0.613v11.676
				C26.059,28.857,25.786,29.133,25.445,29.133z M29.134,16.229c-0.159,0-0.314-0.061-0.435-0.18L14.999,2.35L1.3,16.049
				c-0.239,0.238-0.627,0.238-0.867,0c-0.242-0.241-0.242-0.629,0-0.87L14.564,1.047c0.242-0.24,0.631-0.24,0.87,0l14.134,14.132
				c0.239,0.24,0.239,0.629,0,0.87C29.447,16.168,29.292,16.229,29.134,16.229z M24.217,7.626c-0.34,0-0.613-0.274-0.613-0.614
				V3.325h-3.687c-0.34,0-0.614-0.274-0.614-0.615c0-0.34,0.274-0.614,0.614-0.614h4.3c0.34,0,0.615,0.274,0.615,0.614v4.302
				C24.832,7.352,24.557,7.626,24.217,7.626z"/>
		</g>
	</g>
</g>
</svg>
