<?xml version="1.0" encoding="utf-8"?>
<!-- Generator: Adobe Illustrator 16.0.0, SVG Export Plug-In . SVG Version: 6.00 Build 0)  -->
<!DOCTYPE svg PUBLIC "-//W3C//DTD SVG 1.1//EN" "http://www.w3.org/Graphics/SVG/1.1/DTD/svg11.dtd">
<svg version="1.1" xmlns="http://www.w3.org/2000/svg" xmlns:xlink="http://www.w3.org/1999/xlink" x="0px" y="0px" width="30px"
	 height="30px" viewBox="0 0 30 30" enable-background="new 0 0 30 30" xml:space="preserve">
<g id="Layer_1">
</g>
<g id="Texto">
	<g>
		<path fill="#CCCCCC" d="M29.285,29.042l-8.417-8.754c2.147-2.154,3.477-5.121,3.477-8.394C24.345,5.336,19.01,0,12.451,0
			C5.892,0,0.557,5.336,0.557,11.895c0,6.56,5.335,11.895,11.895,11.895c2.88,0,5.522-1.028,7.582-2.736l8.435,8.774
			c0.111,0.114,0.26,0.173,0.41,0.173c0.14,0,0.281-0.053,0.393-0.158C29.495,29.625,29.501,29.267,29.285,29.042z M12.451,22.655
			c-5.934,0-10.761-4.826-10.761-10.761c0-5.934,4.827-10.762,10.761-10.762c5.935,0,10.761,4.828,10.761,10.762
			C23.212,17.829,18.386,22.655,12.451,22.655z"/>
	</g>
</g>
</svg>
