<?xml version="1.0" encoding="utf-8"?>
<!-- Generator: Adobe Illustrator 16.0.0, SVG Export Plug-In . SVG Version: 6.00 Build 0)  -->
<!DOCTYPE svg PUBLIC "-//W3C//DTD SVG 1.1//EN" "http://www.w3.org/Graphics/SVG/1.1/DTD/svg11.dtd">
<svg version="1.1" xmlns="http://www.w3.org/2000/svg" xmlns:xlink="http://www.w3.org/1999/xlink" x="0px" y="0px"
	 width="231.276px" height="76px" viewBox="0 0 231.276 76" enable-background="new 0 0 231.276 76" xml:space="preserve">
<g id="Layer_1">
</g>
<g id="Layer_3">
	<g>
		<g>
			<polygon fill="#F47E20" points="8.553,45 0,30.5 8.553,16 25.658,16 34.211,30.5 25.658,45 			"/>
			<polygon fill="#F47E20" points="35.669,60 27.115,45.5 35.669,31 52.774,31 61.326,45.5 52.774,60 			"/>
			<polygon fill="#F47E20" points="62.784,76 54.23,61.5 62.784,47 79.89,47 88.441,61.5 79.89,76 			"/>
			<polygon fill="#F47E20" points="35.669,29 27.115,14.5 35.669,0 52.774,0 61.326,14.5 52.774,29 			"/>
		</g>
		<g>
			<path fill="#5F6060" d="M88.333,39.357h-2.544v-3.05h-0.113c-1.923,2.168-6.107,3.418-9.952,3.418
				c-7.917,0-12.894-4.006-12.894-8.967c0-4.962,4.921-8.748,12.78-8.748c4.016,0,7.859,1.175,10.065,3.308h0.113v-2.94h2.544
				V39.357z M65.376,30.758c0,3.896,3.958,7.423,10.291,7.423c6.673,0,10.291-3.528,10.291-7.607c0-3.933-4.128-7.021-10.461-7.021
				C69.503,23.554,65.376,27.083,65.376,30.758z"/>
			<path fill="#5F6060" d="M114.063,36.308h-0.113c-1.923,2.168-6.108,3.418-9.953,3.418c-7.917,0-12.893-4.006-12.893-8.967
				c0-4.962,4.92-8.748,12.779-8.748c4.016,0,7.86,1.175,10.066,3.308h0.113V9.037h2.543v30.321h-2.543V36.308z M114.231,30.574
				c0-3.933-4.127-7.021-10.46-7.021c-5.994,0-10.122,3.529-10.122,7.205c0,3.896,3.958,7.423,10.291,7.423
				C110.613,38.182,114.231,34.654,114.231,30.574z"/>
			<path fill="#5F6060" d="M131.592,36.381l9.274-14.002h2.601l-11.931,17.899l-11.988-17.899h2.602L131.592,36.381z"/>
			<path fill="#5F6060" d="M149.832,16.718c0,0.845-0.759,1.507-1.728,1.507c-0.97,0-1.727-0.662-1.727-1.507
				c0-0.809,0.757-1.507,1.727-1.507C149.073,15.211,149.832,15.909,149.832,16.718z M149.349,39.357h-2.545V22.378h2.545V39.357z"
				/>
			<path fill="#5F6060" d="M166.651,25.465c-0.848-1.175-2.545-1.911-4.58-1.911c-2.205,0-4.467,1.177-4.467,2.647
				c0,4.079,12.724,2.095,12.724,8.233c0,3.124-3.733,5.292-8.426,5.292c-4.355,0-7.918-1.728-8.991-4.484l2.487-0.515
				c0.961,2.022,3.055,3.455,6.504,3.455c3.279,0,5.88-1.69,5.88-3.822c0-2.095-2.488-2.756-5.089-3.344
				c-3.563-0.846-7.635-1.838-7.635-4.705c0-2.573,3.337-4.3,7.125-4.3c2.658,0,5.542,1.139,6.673,2.72L166.651,25.465z"/>
			<path fill="#5F6060" d="M175.756,31.016c-0.17,4.3,4.411,7.166,10.461,7.166c4.071,0,7.352-1.581,9.217-3.858l2.149,0.809
				c-2.375,2.94-6.56,4.594-11.705,4.594c-7.747,0-12.667-4.079-12.667-8.894c0-4.741,5.033-8.821,12.667-8.821
				c7.916,0,12.609,4.116,12.554,9.005H175.756z M195.887,29.471c-0.621-3.124-4.58-5.917-9.953-5.917
				c-5.314,0-9.726,2.72-10.178,5.917H195.887z"/>
		</g>
		<g>
			<path fill="#F47E20" d="M228.159,9.037h3.117V29.32c0,10.405-6.339,10.405-14.03,10.405c-7.692,0-14.031,0-14.031-10.405V9.037
				h3.116V29.32c0,5.818,1.367,7.644,10.915,7.644c9.547,0,10.913-1.825,10.913-7.644V9.037z"/>
		</g>
	</g>
</g>
</svg>
